<svg width="66" height="63" viewBox="0 0 66 63" fill="none" xmlns="http://www.w3.org/2000/svg">
<path fill-rule="evenodd" clip-rule="evenodd" d="M0.648438 3.33341C0.648438 2.03392 1.70189 0.980469 3.00138 0.980469H63.0014C64.3009 0.980469 65.3543 2.03392 65.3543 3.33341C65.3543 4.6329 64.3009 5.68635 63.0014 5.68635H62.021V43.3334C62.021 46.4738 59.4752 49.0197 56.3347 49.0197H38.6819L47.9985 58.3363C48.9174 59.2552 48.9174 60.745 47.9985 61.6638C47.0796 62.5827 45.5898 62.5827 44.6709 61.6638L33.0014 49.9943L21.3318 61.6638C20.4129 62.5827 18.9231 62.5827 18.0043 61.6638C17.0854 60.745 17.0854 59.2552 18.0043 58.3363L27.3209 49.0197H9.66805C6.5276 49.0197 3.98177 46.4738 3.98177 43.3334V5.68635H3.00138C1.70189 5.68635 0.648438 4.6329 0.648438 3.33341ZM8.68765 5.68635V43.3334C8.68765 43.8749 9.12659 44.3138 9.66805 44.3138H32.9991C33.0006 44.3138 33.0022 44.3138 33.0037 44.3138H56.3347C56.8762 44.3138 57.3151 43.8749 57.3151 43.3334V5.68635H8.68765ZM51.3318 15.003C52.2507 15.9218 52.2507 17.4116 51.3318 18.3305L37.9985 31.6639C37.0796 32.5827 35.5898 32.5827 34.6709 31.6639L26.3347 23.3276L17.9985 31.6639C17.0796 32.5827 15.5898 32.5827 14.6709 31.6639C13.7521 30.745 13.7521 29.2552 14.6709 28.3363L24.6709 18.3363C25.5898 17.4174 27.0796 17.4174 27.9985 18.3363L36.3347 26.6725L48.0043 15.003C48.9231 14.0841 50.413 14.0841 51.3318 15.003Z" fill="url(#paint0_linear_3830_16895)"/>
<defs>
<linearGradient id="paint0_linear_3830_16895" x1="11.2367" y1="28.7899" x2="71.8623" y2="31.4069" gradientUnits="userSpaceOnUse">
<stop stop-color="#0DB9B9"/>
<stop offset="1" stop-color="#525FFF"/>
</linearGradient>
</defs>
</svg>
