<svg width="66" height="66" viewBox="0 0 66 66" fill="none" xmlns="http://www.w3.org/2000/svg">
<path fill-rule="evenodd" clip-rule="evenodd" d="M33.0012 0.646973C34.3007 0.646973 35.3541 1.70042 35.3541 2.99991V6.33325C35.3541 7.63274 34.3007 8.68619 33.0012 8.68619C31.7017 8.68619 30.6483 7.63274 30.6483 6.33325V2.99991C30.6483 1.70042 31.7017 0.646973 33.0012 0.646973ZM10.1242 10.1229C11.0431 9.20405 12.5329 9.20405 13.4518 10.1229L15.8088 12.4799C16.7277 13.3988 16.7277 14.8886 15.8088 15.8075C14.8899 16.7264 13.4001 16.7264 12.4812 15.8075L10.1242 13.4505C9.20533 12.5316 9.20533 11.0418 10.1242 10.1229ZM55.8782 10.1229C56.7971 11.0418 56.7971 12.5316 55.8782 13.4505L53.5212 15.8075C52.6023 16.7264 51.1125 16.7264 50.1936 15.8075C49.2747 14.8886 49.2747 13.3988 50.1936 12.48L52.5506 10.1229C53.4695 9.20405 54.9593 9.20405 55.8782 10.1229ZM22.8799 22.8787C17.29 28.4685 17.29 37.5315 22.8799 43.1213L24.7035 44.945C25.4259 45.6674 26.0587 46.4627 26.5947 47.3136H39.4077C39.9437 46.4627 40.5765 45.6674 41.2989 44.945L43.1225 43.1213C48.7124 37.5315 48.7124 28.4685 43.1225 22.8787C37.5327 17.2888 28.4697 17.2888 22.8799 22.8787ZM42.928 50.6493C43.3553 49.7769 43.9265 48.9724 44.6264 48.2725L46.4501 46.4489C53.8777 39.0213 53.8777 26.9787 46.4501 19.5511C39.0225 12.1235 26.9799 12.1235 19.5523 19.5511C12.1247 26.9787 12.1247 39.0213 19.5523 46.4489L21.376 48.2725C22.0759 48.9725 22.6471 49.777 23.0745 50.6494C23.0869 50.6763 23.0998 50.703 23.1132 50.7294C23.6795 51.9154 23.9816 53.2237 23.9816 54.5631V56.3332C23.9816 61.3146 28.0198 65.3529 33.0012 65.3529C37.9826 65.3529 42.0208 61.3146 42.0208 56.3332V54.5631C42.0208 53.2239 42.3228 51.9158 42.889 50.7298C42.9025 50.7033 42.9155 50.6764 42.928 50.6493ZM37.5548 52.0195H28.4476C28.6061 52.8521 28.6875 53.7034 28.6875 54.5631V56.3332C28.6875 58.7157 30.6188 60.647 33.0012 60.647C35.3836 60.647 37.3149 58.7157 37.3149 56.3332V54.5631C37.3149 53.7034 37.3963 52.8521 37.5548 52.0195ZM0.648438 32.9997C0.648438 31.7002 1.70188 30.6468 3.00138 30.6468H6.33471C7.6342 30.6468 8.68765 31.7002 8.68765 32.9997C8.68765 34.2992 7.6342 35.3527 6.33471 35.3527H3.00138C1.70188 35.3527 0.648438 34.2992 0.648438 32.9997ZM57.3151 32.9997C57.3151 31.7002 58.3685 30.6468 59.668 30.6468H63.0014C64.3009 30.6468 65.3543 31.7002 65.3543 32.9997C65.3543 34.2992 64.3009 35.3527 63.0014 35.3527H59.668C58.3685 35.3527 57.3151 34.2992 57.3151 32.9997Z" fill="url(#paint0_linear_3830_16889)"/>
<defs>
<linearGradient id="paint0_linear_3830_16889" x1="11.2367" y1="29.9668" x2="71.8736" y2="32.4495" gradientUnits="userSpaceOnUse">
<stop stop-color="#0DB9B9"/>
<stop offset="1" stop-color="#525FFF"/>
</linearGradient>
</defs>
</svg>
